# xmcd
#
# Track frame offsets:
#	150
#	9311
#	22401
#	36179
#	49028
#	65549
#	81287
#	93190
#	104054
#	114942
#	126559
#	139880
#	154200
#	163748
#	175571
#	190282
#	202437
#	218976
#	235769
#	246002
#	260515
#	275680
#	291289
#	299188
#	313583
#	326445
#
# Disc length: 4475 seconds
#
# Revision: 0
# Processed by: cddbd v1.5.2PL0 Copyright (c) Steve Scherf et al.
# Submitted via: EasyCDDAExtractor 2010.6.0.0
#
DISCID=9911791a
DTITLE=George Hamilton IV - My North Country Home CD 3
DYEAR=1900
DGENRE=
TTITLE0=Pictou County Jail
TTITLE1=My Canadian Maid
TTITLE2=Back To Down East Country
TTITLE3=Old Bill Jones
TTITLE4=Into The Mountains
TTITLE5=Lismore Lady
TTITLE6=T. C. Carry Me
TTITLE7=My North Country Home
TTITLE8=My Nova Scotia Home
TTITLE9=Prince Edward Island Is Heaven To Me
TTITLE10=Apple Blossom Time In Annapolis Valley
TTITLE11=Maritime Farewell
TTITLE12=Take Me Back To Old New Brunswick
TTITLE13=Ghost Of Bras D'or
TTITLE14=Squid Jiggin' Ground
TTITLE15=Atlantic Lullaby
TTITLE16=Isle Of Newfoundland
TTITLE17=Farewell To Nova Scotia
TTITLE18=Saskatchewan
TTITLE19=Calgary Song
TTITLE20=Cape Breton Lullaby
TTITLE21=Fiddler's Green
TTITLE22=Where The Blue Waters Foam
TTITLE23=Little Boats Of Newfoundland
TTITLE24=Peter Amberley
TTITLE25=Shores Of Prince Edward Island
EXTD=
EXTT0=
EXTT1=
EXTT2=
EXTT3=
EXTT4=
EXTT5=
EXTT6=
EXTT7=
EXTT8=
EXTT9=
EXTT10=
EXTT11=
EXTT12=
EXTT13=
EXTT14=
EXTT15=
EXTT16=
EXTT17=
EXTT18=
EXTT19=
EXTT20=
EXTT21=
EXTT22=
EXTT23=
EXTT24=
EXTT25=
PLAYORDER=
